<svg xmlns="http://www.w3.org/2000/svg" viewBox="0 0 750 500"><g id="freepik--Stopwatch--inject-14"><rect x="482.04" y="108.34" width="12.52" height="19.54" transform="matrix(0.76, -0.65, 0.65, 0.76, 41.07, 346.95)" style="fill:#263238"></rect><path d="M495.58,106.67,476,123.49l-13.73-16c5.4-7.58,11.84-13.3,19.55-16.82Z" style="fill:#455a64"></path><path d="M479.3,120.67c-.11.1-3.42-3.54-7.4-8.11s-7.12-8.35-7-8.45,3.42,3.54,7.4,8.11S479.41,120.58,479.3,120.67Z" style="fill:#263238"></path><path d="M483,117.47A23.15,23.15,0,0,1,480.8,115c-1.32-1.55-3.11-3.7-5.08-6.1l-5-6.16-1.5-1.87c-.36-.46-.55-.67-.55-.7.2-.18,3.53,3.61,7.47,8.4,2,2.4,3.72,4.59,5,6.2A18.59,18.59,0,0,1,483,117.47Z" style="fill:#263238"></path><path d="M488,113.2a22.56,22.56,0,0,1-2.23-2.47c-1.33-1.57-3.13-3.76-5.11-6.19l-5-6.26-1.5-1.91a5.13,5.13,0,0,1-.52-.73,14.13,14.13,0,0,1,2.3,2.41c1.35,1.55,3.17,3.73,5.14,6.16s3.74,4.66,5,6.29A19.7,19.7,0,0,1,488,113.2Z" style="fill:#263238"></path><path d="M492.51,109.2c-.11.09-3.4-3.58-7.35-8.2s-7.05-8.45-6.94-8.55,3.39,3.58,7.34,8.21S492.62,109.11,492.51,109.2Z" style="fill:#263238"></path><rect x="637.26" y="110.4" width="12.52" height="19.54" transform="translate(285.81 -428.11) rotate(46.3)" style="fill:#263238"></rect><path d="M655.33,126.84l-17.82-18.65,15.23-14.55c7.84,5,13.9,11.13,17.81,18.65Z" style="fill:#455a64"></path><path d="M640.49,111.32c-.1-.11,3.35-3.61,7.71-7.82s8-7.54,8.07-7.44-3.35,3.6-7.71,7.82S640.59,111.42,640.49,111.32Z" style="fill:#263238"></path><path d="M643.89,114.87a20.93,20.93,0,0,1,2.32-2.34c1.47-1.4,3.53-3.31,5.82-5.41l5.89-5.33,1.79-1.6c.43-.38.64-.57.67-.58.19.19-3.42,3.72-8,7.9-2.29,2.09-4.39,4-5.93,5.29A20.91,20.91,0,0,1,643.89,114.87Z" style="fill:#263238"></path><path d="M648.41,119.6a21,21,0,0,1,2.35-2.36c1.49-1.41,3.58-3.33,5.91-5.43l6-5.34,1.83-1.6a8.5,8.5,0,0,1,.7-.56,14.09,14.09,0,0,1-2.28,2.43c-1.48,1.43-3.57,3.36-5.89,5.46s-4.46,4-6,5.32A21.74,21.74,0,0,1,648.41,119.6Z" style="fill:#263238"></path><path d="M652.64,123.91c-.1-.11,3.4-3.58,7.81-7.77s8.07-7.49,8.17-7.38-3.4,3.58-7.81,7.76S652.74,124,652.64,123.91Z" style="fill:#263238"></path><rect x="560.26" y="74.72" width="14.82" height="23.13" style="fill:#263238"></rect><path d="M583,81.64H552.5V56.71c10.69-2.64,20.89-2.8,30.53,0Z" style="fill:#EBBD98"></path><path d="M583.39,56.81a6.38,6.38,0,0,1-1.13.56,27.37,27.37,0,0,1-3.21,1.18,38.36,38.36,0,0,1-5,1.18,42.23,42.23,0,0,1-6.21.52,41.32,41.32,0,0,1-6.21-.46,37.5,37.5,0,0,1-5-1.13,29.31,29.31,0,0,1-3.22-1.15,5.28,5.28,0,0,1-1.13-.55c0-.09,1.68.6,4.45,1.34a43,43,0,0,0,4.94,1,46.53,46.53,0,0,0,6.14.42,46.24,46.24,0,0,0,6.14-.48,44.16,44.16,0,0,0,4.92-1C581.71,57.43,583.35,56.72,583.39,56.81Z" style="fill:#263238"></path><path d="M562.58,81.57c-.14,0-.26-4.79-.26-10.69s.12-10.69.26-10.69.26,4.78.26,10.69S562.73,81.57,562.58,81.57Z" style="fill:#263238"></path><path d="M568.39,81.71c-.14,0-.26-4.81-.26-10.74s.12-10.73.26-10.73.26,4.8.26,10.73S568.54,81.71,568.39,81.71Z" style="fill:#263238"></path><path d="M574.2,81.62c-.14,0-.26-4.81-.26-10.74s.12-10.74.26-10.74.26,4.81.26,10.74S574.35,81.62,574.2,81.62Z" style="fill:#263238"></path><path d="M579,81.62c-.15,0-.26-5.2-.26-11.61s.11-11.61.26-11.61.26,5.2.26,11.61S579.18,81.62,579,81.62Z" style="fill:#263238"></path><path d="M557.09,81.47c-.14,0-.26-5.2-.26-11.61s.12-11.61.26-11.61.26,5.2.26,11.61S557.24,81.47,557.09,81.47Z" style="fill:#263238"></path><circle cx="565.88" cy="198.53" r="107.83" transform="translate(25.36 458.28) rotate(-45)" style="fill:#EBBD98"></circle><circle cx="565.88" cy="197.67" r="90.56" style="fill:#fafafa"></circle><path d="M656.44,197.67s0-.49-.07-1.46,0-2.42-.19-4.31a90.06,90.06,0,0,0-2.58-16.34,88.71,88.71,0,0,0-3.71-11.36,87.7,87.7,0,0,0-6.3-12.74,91.65,91.65,0,0,0-23-25.69,90.2,90.2,0,0,0-38.05-16.88,92.06,92.06,0,0,0-35.41.41,97.55,97.55,0,0,0-12.08,3.45,90.57,90.57,0,0,0-42,31.49,88.45,88.45,0,0,0-7.36,11.86c-1.11,2.07-2.06,4.22-3,6.38s-1.78,4.4-2.49,6.68a86.38,86.38,0,0,0-3.44,14,97.42,97.42,0,0,0-1.19,14.53,99,99,0,0,0,1.18,14.54,88.92,88.92,0,0,0,3.44,14c.72,2.27,1.62,4.47,2.49,6.67s1.92,4.32,3,6.39a87.5,87.5,0,0,0,7.37,11.86,90.54,90.54,0,0,0,42,31.5,97.55,97.55,0,0,0,12.08,3.45,90.86,90.86,0,0,0,12.11,1.69,89.78,89.78,0,0,0,23.3-1.28,90.2,90.2,0,0,0,38.05-16.88,91.49,91.49,0,0,0,23-25.69,88.2,88.2,0,0,0,6.3-12.74,89.87,89.87,0,0,0,6.29-27.7c.17-1.89.14-3.34.19-4.31s.07-1.47.07-1.47,0,.5,0,1.47,0,2.42-.14,4.31a88.72,88.72,0,0,1-6.17,27.79,87.47,87.47,0,0,1-6.28,12.8,91.66,91.66,0,0,1-23,25.83,90.58,90.58,0,0,1-38.2,17,90.14,90.14,0,0,1-23.41,1.32,91.5,91.5,0,0,1-12.17-1.69,96.42,96.42,0,0,1-12.15-3.46,91,91,0,0,1-42.25-31.65,88.34,88.34,0,0,1-7.4-11.92c-1.12-2.08-2.08-4.26-3.06-6.43s-1.78-4.42-2.5-6.71a88.83,88.83,0,0,1-3.46-14.06,90.4,90.4,0,0,1,0-29.24,89,89,0,0,1,3.46-14c.73-2.29,1.63-4.5,2.51-6.71s1.93-4.34,3.05-6.42a89.42,89.42,0,0,1,7.41-11.92,90.92,90.92,0,0,1,42.24-31.64,96.76,96.76,0,0,1,12.14-3.46,91.88,91.88,0,0,1,12.18-1.69,90.06,90.06,0,0,1,23.4,1.32,90.26,90.26,0,0,1,38.2,17,91.74,91.74,0,0,1,23,25.84,91.26,91.26,0,0,1,10,24.2,89.69,89.69,0,0,1,2.49,16.39c.15,1.89.1,3.34.14,4.31S656.44,197.67,656.44,197.67Z" style="fill:#263238"></path><path d="M643.15,194.39c-2.87.12-5.21,0-5.22-.25s2.3-.59,5.17-.75,5.21-.06,5.23.24S646,194.27,643.15,194.39Z" style="fill:#263238"></path><path d="M641.22,215.24c-2.8-.66-5-1.39-5-1.64s2.38.05,5.19.66,5,1.35,5,1.64S644,215.89,641.22,215.24Z" style="fill:#263238"></path><path d="M633.75,234.79c-2.53-1.38-4.47-2.69-4.35-2.91s2.28.69,4.82,2,4.49,2.66,4.35,2.92S636.27,236.18,633.75,234.79Z" style="fill:#263238"></path><path d="M621.3,251.63c-2.06-2-3.59-3.78-3.41-4s2,1.27,4.1,3.25,3.61,3.75,3.41,4S623.35,253.64,621.3,251.63Z" style="fill:#263238"></path><path d="M604.8,264.53c-1.44-2.49-2.44-4.61-2.22-4.74s1.6,1.77,3.08,4.23,2.48,4.58,2.23,4.74S606.25,267,604.8,264.53Z" style="fill:#263238"></path><path d="M585.45,272.52c-.72-2.79-1.11-5.1-.86-5.16s1.06,2.13,1.83,4.9,1.15,5.08.86,5.16S586.17,275.3,585.45,272.52Z" style="fill:#263238"></path><path d="M564.66,275c0-2.88.29-5.21.54-5.21s.46,2.34.46,5.21-.25,5.21-.54,5.21S564.61,277.89,564.66,275Z" style="fill:#263238"></path><path d="M544,271.87c.82-2.76,1.68-4.93,1.93-4.86s-.19,2.37-1,5.14-1.64,5-1.93,4.86S543.13,274.63,544,271.87Z" style="fill:#263238"></path><path d="M524.87,263.26c1.53-2.43,2.94-4.3,3.16-4.17s-.82,2.24-2.31,4.7-2.91,4.32-3.16,4.17S523.34,265.7,524.87,263.26Z" style="fill:#263238"></path><path d="M508.78,249.86c2.13-1.94,4-3.36,4.16-3.17s-1.38,1.93-3.48,3.9-3.95,3.39-4.16,3.18S506.66,251.8,508.78,249.86Z" style="fill:#263238"></path><path d="M496.86,232.64c2.57-1.29,4.75-2.16,4.86-1.94s-1.85,1.49-4.4,2.83-4.72,2.21-4.86,1.94S494.3,233.94,496.86,232.64Z" style="fill:#263238"></path><path d="M490,212.86c2.83-.56,5.16-.81,5.21-.56s-2.19.94-5,1.54-5.15.85-5.21.56S487.2,213.42,490,212.86Z" style="fill:#263238"></path><path d="M488.73,192c2.87.21,5.18.59,5.17.84s-2.36.32-5.23.15-5.19-.54-5.17-.84S485.86,191.74,488.73,192Z" style="fill:#263238"></path><path d="M493.08,171.47c2.71,1,4.83,2,4.75,2.21s-2.36-.33-5.08-1.27-4.84-1.92-4.75-2.2S490.38,170.49,493.08,171.47Z" style="fill:#263238"></path><path d="M502.79,152.92c2.34,1.67,4.12,3.19,4,3.4s-2.18-.95-4.55-2.58-4.15-3.15-4-3.4S500.44,151.25,502.79,152.92Z" style="fill:#263238"></path><path d="M517.1,137.64c1.81,2.23,3.12,4.17,2.93,4.34s-1.86-1.5-3.7-3.71-3.16-4.14-2.93-4.33S515.29,135.41,517.1,137.64Z" style="fill:#263238"></path><path d="M535,126.74c1.14,2.64,1.89,4.86,1.65,5s-1.38-1.94-2.56-4.56-1.93-4.84-1.66-5S533.83,124.11,535,126.74Z" style="fill:#263238"></path><path d="M555.14,121.07c.39,2.85.51,5.19.25,5.23s-.81-2.24-1.24-5.08-.55-5.19-.26-5.23S554.75,118.22,555.14,121.07Z" style="fill:#263238"></path><path d="M576.08,121c-.38,2.85-.89,5.14-1.14,5.11s-.19-2.38.15-5.23.85-5.15,1.14-5.11S576.46,118.14,576.08,121Z" style="fill:#263238"></path><path d="M596.27,126.53c-1.13,2.65-2.24,4.71-2.48,4.61s.47-2.33,1.56-5,2.21-4.72,2.48-4.6S597.41,123.89,596.27,126.53Z" style="fill:#263238"></path><path d="M614.23,137.3c-1.8,2.25-3.42,3.94-3.62,3.78s1.07-2.13,2.84-4.4,3.38-4,3.62-3.77S616,135.06,614.23,137.3Z" style="fill:#263238"></path><path d="M628.66,152.48c-2.34,1.68-4.35,2.88-4.5,2.67s1.6-1.76,3.91-3.48,4.32-2.91,4.5-2.67S631,150.8,628.66,152.48Z" style="fill:#263238"></path><path d="M638.49,171c-2.7,1-5,1.59-5.06,1.36s2-1.27,4.71-2.3,4.94-1.64,5.05-1.36S641.19,170,638.49,171Z" style="fill:#263238"></path><path d="M643,191.42c-2.87.23-5.21.21-5.23,0s2.28-.67,5.14-1,5.21-.25,5.23.05S645.84,191.19,643,191.42Z" style="fill:#263238"></path><path d="M530.71,99.7l-.31.14-.92.37c-.8.34-2,.75-3.53,1.42a105,105,0,0,0-12.53,6.25c-2.56,1.48-5.27,3.25-8.12,5.24s-5.76,4.31-8.67,6.92a102.19,102.19,0,0,0-28.39,41.53c-1.37,3.66-2.4,7.24-3.29,10.59s-1.49,6.55-1.94,9.47a105.92,105.92,0,0,0-1.27,13.94c-.08,1.66,0,2.94,0,3.81,0,.42,0,.74,0,1a2.14,2.14,0,0,1,0,.34,1.39,1.39,0,0,1,0-.33c0-.25,0-.58,0-1,0-.87-.11-2.15-.06-3.81a98.32,98.32,0,0,1,1.11-14c.42-2.94,1.07-6.13,1.88-9.52a108.59,108.59,0,0,1,3.26-10.65,101.18,101.18,0,0,1,28.53-41.73c2.93-2.61,5.91-4.86,8.73-6.91s5.6-3.75,8.19-5.21a99.25,99.25,0,0,1,12.63-6.12c1.53-.64,2.76-1,3.58-1.33l.94-.32A1.37,1.37,0,0,1,530.71,99.7Z" style="fill:#fff"></path><path d="M560.81,93.86a21.26,21.26,0,0,1-3.12.41c-1.94.2-4.6.49-7.54.87s-5.59.78-7.51,1.08a20.91,20.91,0,0,1-3.12.4,17.17,17.17,0,0,1,3.06-.76c1.91-.39,4.56-.85,7.5-1.23s5.63-.62,7.58-.73A16.82,16.82,0,0,1,560.81,93.86Z" style="fill:#fff"></path><g style="opacity:0.4"><path d="M493.5,252.11s46.93,74.06,119.73,36.13c76-39.6,34-130.37,34-130.37s35.76,72.34-38.32,119.5c-18.45,11.75-38.54,11.76-53.86,10.22C515.9,283.67,493.5,252.11,493.5,252.11Z"></path></g><path d="M591.12,149.54a311.16,311.16,0,0,1-1.2,39.81c-.46,4.79-1,9.63-2.85,14.08s-5,8.53-9.44,10.41-10.12,1.1-13.21-2.58Z" style="fill:#e0e0e0"></path><polygon points="563.91 190.53 596.82 135.11 576.96 197.68 566.81 200.71 563.91 190.53" style="fill:#EBBD98"></polygon><g style="opacity:0.4"><polygon points="596.82 135.11 572.41 191.74 576.96 197.68 596.82 135.11"></polygon></g><circle cx="566.81" cy="200.71" r="10.59" style="fill:#fafafa"></circle><path d="M577.4,200.71a23,23,0,0,0-.43-2.56,10.58,10.58,0,0,0-3.86-5.71,10.39,10.39,0,0,0-9.83-1.45,9.6,9.6,0,0,0-2.61,1.41,9.73,9.73,0,0,0-2.19,2.2,10.33,10.33,0,0,0,0,12.22,10.53,10.53,0,0,0,4.8,3.62A10.46,10.46,0,0,0,577,203.27a22.18,22.18,0,0,0,.43-2.56,8.31,8.31,0,0,1-.23,2.61,10.56,10.56,0,0,1-3.84,6,10.67,10.67,0,0,1-4.53,2.05,10.83,10.83,0,0,1-5.68-.44,9.88,9.88,0,0,1-2.75-1.47,10.24,10.24,0,0,1-2.3-2.3,10.75,10.75,0,0,1,0-12.82,10.45,10.45,0,0,1,2.3-2.3,10.27,10.27,0,0,1,2.75-1.46,10.73,10.73,0,0,1,5.68-.44,10.68,10.68,0,0,1,8.37,8A8.32,8.32,0,0,1,577.4,200.71Z" style="fill:#263238"></path><circle cx="566.81" cy="200.71" r="7.88" transform="translate(257.79 716.53) rotate(-78.57)" style="fill:#455a64"></circle></g></svg>